<?xml version="1.0" encoding="utf-8"?>
<svg version="1.1"
	xmlns="http://www.w3.org/2000/svg"
	xmlns:xlink="http://www.w3.org/1999/xlink" x="0px" y="0px" viewBox="0 0 512 512" style="enable-background:new 0 0 512 512;" xml:space="preserve">
	<style type="text/css">
	.background{fill:#2E3B60;}
	.text{fill:#FFFFFF;}
	</style>
	<g>
		<rect x="-0.13" y="-0.18" class="background" width="512" height="512"/>
	</g>
	<g>
		<g>
			<path class="text" d="M114.12,172.85c0-11.42,2.42-42.03,43.42-42.03c36.33,0,42.38,23.87,43.25,37.36
			c0.17,3.11-1.38,5.02-4.5,5.71l-19.55,4.32c-3.46,0.69-5.36-0.86-5.71-4.5c-0.69-8.3-3.63-13.15-13.49-13.15
			c-12.8,0-13.67,8.13-13.67,21.45v24.91c0,13.32,0.87,21.45,13.67,21.45c12.8,0,13.67-8.13,13.67-16.61h-10.03
			c-3.29,0-5.19-1.9-5.19-5.19v-13.84c0-3.46,1.9-5.19,5.19-5.19h34.6c3.46,0,5.19,1.73,5.19,5.19v23.35
			c0,11.42-2.42,42.03-43.42,42.03c-41,0-43.42-30.62-43.42-42.03V172.85z"/>
			<path class="text" d="M294.01,133.93c3.46,0,5.19,1.73,5.19,5.19v19.37c0,3.29-1.73,5.19-5.19,5.19h-41.86
			c-3.29,0-5.19,1.73-5.19,5.19v5.54c0,3.29,1.9,5.19,5.19,5.19h26.81c3.46,0,5.19,1.73,5.19,5.19v19.37c0,3.29-1.73,5.19-5.19,5.19
			h-26.81c-3.29,0-5.19,1.73-5.19,5.19v5.54c0,3.29,1.9,5.19,5.19,5.19h41.86c3.46,0,5.19,1.73,5.19,5.19v19.37
			c0,3.46-1.73,5.19-5.19,5.19h-72.65c-3.29,0-5.19-1.9-5.19-5.19V139.12c0-3.46,1.9-5.19,5.19-5.19H294.01z"/>
			<path class="text" d="M397.61,216.1c0,11.42-2.42,42.03-43.42,42.03c-41,0-43.42-30.62-43.42-42.03v-43.25
			c0-11.42,2.42-42.03,43.42-42.03c41,0,43.42,30.62,43.42,42.03V216.1z M367.86,182.02c0-13.32-0.86-21.45-13.67-21.45
			c-12.8,0-13.67,8.13-13.67,21.45v24.91c0,13.32,0.87,21.45,13.67,21.45c12.8,0,13.67-8.13,13.67-21.45V182.02z"/>
		</g>
		<g>
			<path class="text" d="M178.94,379.33c-1.99,1.99-3.98,1.99-5.97,0l-5.4-5.4c-0.57-0.57-1.14-0.71-1.99-0.43
			c-4.26,1.56-9.52,2.42-15.78,2.42c-33.69,0-35.68-25.16-35.68-34.55v-35.54c0-9.38,1.99-34.55,35.68-34.55
			c33.69,0,35.68,25.16,35.68,34.55v35.54c0,2.84-0.28,7.39-1.56,12.08c-0.14,0.85,0,1.42,0.43,1.99l6.4,6.82
			c1.85,1.99,1.71,4.12-0.28,6.11L178.94,379.33z M138.57,333.83c0,10.95,0.71,17.63,11.23,17.63c10.52,0,11.23-6.68,11.23-17.63
			v-20.47c0-10.95-0.71-17.63-11.23-17.63c-10.52,0-11.23,6.68-11.23,17.63V333.83z"/>
			<path class="text" d="M218.03,273.84c2.84,0,4.26,1.42,4.26,4.26v55.73c0,10.95,0.71,17.63,11.23,17.63
			c10.52,0,11.23-6.68,11.23-17.63V278.1c0-2.84,1.56-4.26,4.26-4.26h15.92c2.84,0,4.26,1.42,4.26,4.26v63.26
			c0,9.38-1.99,34.55-35.68,34.55s-35.68-25.16-35.68-34.55V278.1c0-2.84,1.56-4.26,4.26-4.26H218.03z"/>
			<path class="text" d="M302.47,273.84c2.84,0,4.26,1.42,4.26,4.26v90.99c0,2.7-1.42,4.26-4.26,4.26h-15.64
			c-2.7,0-4.26-1.56-4.26-4.26V278.1c0-2.84,1.56-4.26,4.26-4.26H302.47z"/>
			<path class="text" d="M388.33,348.9c2.84,0,4.26,1.42,4.26,4.26v15.92c0,2.7-1.42,4.26-4.26,4.26h-70.66
			c-3.41,0-4.69-2.13-2.99-5.12L353.5,300c0.57-0.99,0.14-1.71-0.99-1.71h-27.15c-2.7,0-4.26-1.56-4.26-4.27V278.1
			c0-2.84,1.56-4.26,4.26-4.26h68.52c3.41,0,4.69,2.13,2.99,5.12l-39.52,68.24c-0.57,0.99-0.14,1.71,1,1.71H388.33z"/>
		</g>
	</g>
</svg>
